<?xml version="1.0" encoding="UTF-8" standalone="no"?>
<!DOCTYPE svg PUBLIC "-//W3C//DTD SVG 1.1//EN" "http://www.w3.org/Graphics/SVG/1.1/DTD/svg11.dtd">
<svg xmlns="http://www.w3.org/2000/svg" version="1.1" viewBox="0.00 0.00 1280.00 1280.00">
<path stroke="#75a470" stroke-width="2.00" fill="none" stroke-linecap="butt" vector-effect="non-scaling-stroke" d="
  M 455.20 792.72
  Q 463.79 788.30 472.02 784.31
  Q 493.94 773.67 519.21 764.08
  C 547.64 753.28 574.63 746.13 602.96 738.66
  Q 615.67 735.31 627.41 732.68
  Q 630.09 732.07 627.35 731.88
  Q 624.98 731.71 622.39 731.74
  Q 589.22 732.09 548.57 730.66
  Q 538.43 730.30 528.41 729.29
  Q 496.75 726.08 465.92 720.34
  Q 441.23 715.74 418.45 711.75
  Q 405.65 709.51 389.37 709.03
  Q 346.81 707.77 309.36 725.63
  Q 288.31 735.67 271.94 747.90
  C 234.69 775.74 211.56 814.72 203.49 860.00
  Q 194.86 908.42 205.42 955.56
  C 210.11 976.48 218.15 997.46 227.82 1016.00
  Q 243.10 1045.28 264.62 1072.31
  Q 269.74 1078.75 274.67 1084.75
  Q 275.55 1085.82 275.48 1084.44
  Q 274.73 1070.22 274.10 1057.73
  C 271.15 998.59 292.42 941.07 328.51 894.95
  C 361.44 852.87 404.32 819.75 452.05 794.36
  Q 453.59 793.54 455.20 792.72"
/>
<path fill="#00ab9b" d="
  M 610.92 451.58
  A 1.40 1.39 -22.7 0 0 611.34 450.56
  C 611.00 426.16 610.97 402.90 612.20 378.96
  C 612.73 368.74 613.92 358.36 614.73 348.16
  Q 615.46 338.86 616.79 328.91
  C 619.01 312.39 621.59 297.32 625.54 280.03
  Q 644.49 196.86 698.60 132.74
  C 749.83 72.04 824.42 35.03 903.21 24.95
  Q 911.73 23.86 918.82 22.99
  Q 926.65 22.02 934.55 21.76
  C 947.00 21.33 958.99 20.61 971.44 21.03
  Q 986.74 21.53 1002.10 22.27
  Q 1008.51 22.58 1016.08 23.86
  C 1020.87 24.67 1025.62 24.73 1030.36 25.39
  Q 1065.54 30.30 1099.47 39.43
  Q 1115.23 43.67 1128.14 48.22
  C 1136.35 51.11 1141.78 57.20 1142.80 66.06
  C 1143.87 75.35 1139.11 81.80 1132.03 86.96
  C 1112.53 101.19 1099.11 121.17 1088.90 143.45
  Q 1080.10 162.66 1075.36 181.03
  Q 1070.23 200.89 1068.57 213.57
  Q 1067.55 221.26 1066.62 228.68
  Q 1065.65 236.39 1065.25 243.81
  Q 1063.73 272.23 1065.05 300.26
  C 1065.51 310.13 1066.67 320.60 1067.68 330.70
  Q 1068.30 336.99 1069.13 342.81
  Q 1073.71 375.09 1078.58 397.53
  Q 1085.66 430.21 1091.94 453.32
  C 1100.99 486.65 1110.10 519.56 1118.70 551.47
  C 1121.65 562.41 1124.13 573.18 1126.73 584.26
  Q 1131.53 604.76 1134.22 622.52
  C 1135.57 631.37 1137.08 640.24 1137.96 648.87
  C 1138.77 656.80 1140.11 664.57 1140.68 672.72
  Q 1141.64 686.72 1142.36 700.19
  Q 1144.41 738.76 1141.30 780.80
  Q 1140.66 789.48 1139.53 798.38
  Q 1138.37 807.43 1137.28 815.45
  Q 1135.15 831.23 1130.48 852.21
  Q 1127.65 864.94 1123.46 879.65
  C 1108.04 933.77 1083.32 985.28 1051.14 1032.35
  C 1012.19 1089.32 963.99 1137.98 906.98 1175.19
  Q 851.39 1211.49 785.66 1233.44
  Q 776.29 1236.57 766.34 1239.12
  Q 736.87 1246.68 715.46 1249.74
  C 701.35 1251.75 687.73 1253.79 673.87 1254.97
  C 664.99 1255.72 656.48 1256.97 647.67 1257.41
  Q 599.57 1259.82 552.36 1257.36
  Q 542.82 1256.86 533.17 1255.78
  C 524.66 1254.83 516.12 1254.36 507.63 1253.15
  C 497.21 1251.67 486.94 1250.43 476.84 1248.58
  C 437.31 1241.31 398.42 1230.13 363.03 1213.28
  Q 346.49 1205.41 329.63 1193.69
  C 318.60 1186.03 308.95 1176.82 297.62 1169.60
  C 289.72 1164.56 282.20 1159.53 274.71 1153.57
  C 206.77 1099.52 156.31 1026.47 126.31 944.96
  Q 118.21 922.95 112.85 903.16
  Q 108.68 887.79 105.05 871.03
  Q 102.92 861.17 101.26 851.40
  Q 97.22 827.60 95.58 809.71
  Q 94.57 798.59 93.45 786.66
  C 91.38 764.66 91.82 742.19 92.07 720.09
  Q 92.22 707.00 93.48 694.66
  C 94.62 683.59 95.33 673.14 96.86 662.02
  Q 99.45 643.27 102.65 627.67
  Q 106.79 607.52 112.93 587.42
  Q 127.12 541.00 152.39 501.12
  Q 180.97 456.02 222.81 425.07
  Q 225.37 423.18 226.00 420.00
  C 231.72 391.50 242.10 363.70 255.91 337.81
  Q 281.65 289.53 316.81 250.15
  Q 319.98 246.59 323.56 243.11
  C 328.46 238.34 335.24 235.21 341.88 236.69
  Q 346.40 237.69 350.69 240.04
  C 368.35 249.70 382.44 264.89 392.26 282.28
  Q 395.41 287.88 398.27 293.46
  C 399.77 296.39 402.95 295.55 405.22 294.20
  Q 429.77 279.58 457.15 271.02
  Q 465.60 268.38 470.29 269.00
  C 478.36 270.07 484.55 275.31 487.60 282.78
  Q 501.44 316.70 502.58 354.25
  Q 503.03 369.42 502.47 383.75
  Q 502.25 389.32 506.98 391.51
  Q 511.08 393.40 516.43 395.48
  Q 558.23 411.74 595.63 440.40
  Q 601.97 445.26 609.65 451.63
  Q 610.30 452.16 610.92 451.58
  Z
  M 678.82 767.63
  Q 679.99 780.41 680.77 790.88
  Q 682.44 813.24 683.75 835.71
  Q 685.15 859.68 685.26 894.50
  Q 685.35 922.62 683.65 943.53
  Q 682.51 957.70 681.42 970.05
  C 680.66 978.75 679.55 986.90 678.55 995.34
  C 677.48 1004.36 675.67 1014.04 673.54 1023.02
  Q 670.63 1035.27 665.02 1049.91
  Q 658.27 1067.55 651.51 1082.79
  C 640.11 1108.45 622.99 1132.54 600.70 1149.74
  Q 592.31 1156.21 584.50 1160.25
  C 549.05 1178.55 508.15 1191.63 469.35 1194.83
  Q 454.31 1196.06 440.35 1197.25
  Q 439.83 1197.29 439.42 1197.64
  A 0.42 0.42 0.0 0 0 439.54 1198.36
  Q 443.74 1199.98 448.19 1201.10
  Q 458.71 1203.76 469.66 1206.40
  C 473.90 1207.42 478.14 1207.96 482.40 1209.02
  Q 486.98 1210.15 492.17 1210.96
  C 498.79 1211.98 505.27 1213.07 511.98 1213.78
  Q 562.21 1219.03 610.62 1217.10
  Q 636.06 1216.09 666.66 1213.34
  C 675.20 1212.57 683.47 1211.33 692.04 1210.57
  C 697.77 1210.06 703.29 1208.86 708.87 1208.06
  C 716.13 1207.04 723.07 1205.53 730.23 1204.08
  Q 791.11 1191.79 845.90 1162.60
  Q 928.63 1118.51 988.15 1046.52
  Q 1033.76 991.35 1062.27 926.28
  Q 1088.10 867.35 1096.63 803.07
  Q 1097.53 796.30 1098.17 788.92
  C 1099.15 777.51 1100.27 765.95 1100.64 754.76
  C 1101.35 733.00 1101.37 710.62 1099.70 688.68
  Q 1098.60 674.17 1097.65 665.22
  Q 1096.28 652.25 1094.05 636.21
  C 1093.51 632.36 1092.66 628.77 1092.03 624.98
  Q 1087.13 595.63 1079.95 568.20
  Q 1069.96 529.99 1058.70 490.86
  Q 1056.01 481.54 1053.37 471.60
  Q 1045.78 443.04 1039.00 413.00
  C 1037.98 408.45 1037.40 403.74 1036.27 399.06
  Q 1034.94 393.58 1034.12 387.75
  C 1033.68 384.68 1032.58 381.29 1032.10 378.00
  C 1030.70 368.48 1028.94 359.21 1027.84 349.58
  C 1026.98 342.04 1025.83 334.56 1025.19 327.03
  Q 1023.34 305.29 1022.80 292.36
  Q 1021.24 255.25 1025.85 215.60
  Q 1029.21 186.74 1039.08 155.49
  Q 1052.22 113.83 1078.51 79.93
  A 1.63 1.63 0.0 0 0 1077.80 77.40
  Q 1075.33 76.48 1072.98 75.97
  Q 1059.36 73.02 1047.75 70.80
  Q 1045.33 70.33 1043.06 69.94
  Q 1014.59 65.09 985.24 63.31
  C 954.83 61.46 924.20 63.57 893.73 68.98
  C 888.10 69.98 882.51 71.40 876.98 72.67
  Q 846.81 79.66 819.45 92.43
  Q 756.57 121.79 715.62 179.17
  Q 678.63 230.99 665.49 291.39
  Q 660.94 312.30 658.76 329.67
  Q 657.75 337.71 656.78 345.56
  C 655.10 359.27 654.54 373.02 653.68 386.44
  C 651.75 416.90 652.16 447.82 653.59 478.33
  C 653.81 482.99 654.19 488.39 655.82 492.66
  C 658.21 498.94 663.43 501.77 668.05 505.75
  C 700.96 534.12 736.37 558.15 776.75 571.90
  Q 788.38 575.86 798.53 575.76
  Q 801.33 575.73 804.00 575.58
  Q 810.78 575.18 816.38 578.04
  C 827.64 583.78 828.42 596.28 827.38 607.74
  C 826.61 616.26 824.83 625.10 822.06 633.36
  C 810.22 668.60 787.21 696.80 757.39 718.56
  Q 723.63 743.20 682.98 758.21
  C 678.26 759.95 678.43 763.39 678.82 767.63
  Z
  M 403.26 413.56
  C 391.42 412.39 382.96 407.23 381.00 394.46
  C 379.37 383.81 378.61 372.41 376.25 361.10
  Q 372.97 345.34 368.04 330.00
  C 363.07 314.55 355.04 297.79 343.46 286.52
  A 1.86 1.85 42.2 0 0 340.75 286.65
  C 324.37 305.93 309.76 327.05 297.24 349.31
  Q 279.57 380.75 271.11 412.13
  C 269.19 419.25 267.71 426.30 266.41 433.48
  C 264.41 444.50 259.55 451.21 250.21 457.61
  C 197.91 493.45 164.78 553.84 149.03 614.03
  Q 144.84 630.05 143.05 640.09
  C 141.62 648.08 139.95 656.22 138.89 664.45
  Q 134.22 700.75 134.01 736.66
  C 133.93 749.63 134.52 763.44 135.18 776.77
  Q 136.35 800.70 140.29 828.46
  Q 143.02 847.73 149.26 874.46
  C 150.10 878.04 151.25 881.58 152.12 885.22
  C 152.97 888.72 154.82 892.48 155.70 896.37
  A 0.40 0.40 0.0 0 0 156.39 896.54
  Q 156.71 896.16 156.75 895.66
  C 157.80 882.76 158.77 869.64 161.06 856.71
  Q 162.84 846.65 165.57 836.98
  Q 174.22 806.33 189.08 779.83
  C 218.58 727.19 267.69 691.15 325.58 674.55
  C 334.85 671.90 345.34 669.96 354.95 668.64
  Q 363.43 667.47 378.39 666.88
  C 385.85 666.58 392.79 667.21 400.01 667.43
  C 414.94 667.90 428.40 670.43 444.49 673.58
  Q 463.24 677.26 480.77 680.22
  Q 503.51 684.07 510.76 684.76
  Q 518.33 685.48 526.93 686.48
  C 538.33 687.79 549.46 688.29 560.98 688.87
  Q 592.86 690.48 625.81 687.89
  C 635.19 687.15 644.60 685.71 653.71 684.10
  Q 678.79 679.65 702.40 670.34
  C 729.69 659.57 753.58 643.25 771.24 620.38
  Q 772.18 619.16 772.84 617.64
  A 1.66 1.66 0.0 0 0 771.76 615.38
  C 755.78 611.01 740.41 604.97 725.66 597.17
  Q 691.31 579.02 661.07 554.63
  Q 635.79 534.23 617.82 517.06
  Q 603.02 502.92 588.38 488.87
  Q 579.58 480.42 567.39 471.52
  Q 529.39 443.77 487.59 429.31
  Q 460.86 420.06 431.57 416.11
  C 422.24 414.85 412.57 414.48 403.26 413.56
  Z
  M 460.79 376.25
  C 461.76 360.14 460.60 345.06 457.83 329.44
  Q 456.89 324.13 455.11 319.19
  A 1.95 1.94 74.9 0 0 452.93 317.93
  Q 450.08 318.46 447.46 319.67
  Q 430.34 327.53 416.02 336.99
  C 413.92 338.37 414.89 342.46 415.30 344.46
  Q 417.60 355.47 420.07 368.83
  C 420.75 372.50 423.02 372.02 425.90 372.37
  Q 441.17 374.18 455.75 377.26
  Q 457.83 377.70 459.99 377.19
  A 1.03 1.02 -4.9 0 0 460.79 376.25
  Z
  M 455.20 792.72
  Q 463.79 788.30 472.02 784.31
  Q 493.94 773.67 519.21 764.08
  C 547.64 753.28 574.63 746.13 602.96 738.66
  Q 615.67 735.31 627.41 732.68
  Q 630.09 732.07 627.35 731.88
  Q 624.98 731.71 622.39 731.74
  Q 589.22 732.09 548.57 730.66
  Q 538.43 730.30 528.41 729.29
  Q 496.75 726.08 465.92 720.34
  Q 441.23 715.74 418.45 711.75
  Q 405.65 709.51 389.37 709.03
  Q 346.81 707.77 309.36 725.63
  Q 288.31 735.67 271.94 747.90
  C 234.69 775.74 211.56 814.72 203.49 860.00
  Q 194.86 908.42 205.42 955.56
  C 210.11 976.48 218.15 997.46 227.82 1016.00
  Q 243.10 1045.28 264.62 1072.31
  Q 269.74 1078.75 274.67 1084.75
  Q 275.55 1085.82 275.48 1084.44
  Q 274.73 1070.22 274.10 1057.73
  C 271.15 998.59 292.42 941.07 328.51 894.95
  C 361.44 852.87 404.32 819.75 452.05 794.36
  Q 453.59 793.54 455.20 792.72
  Z
  M 642.60 866.26
  C 642.37 843.62 641.02 818.92 639.19 797.52
  Q 638.28 786.96 637.61 774.99
  A 1.20 1.20 0.0 0 0 636.24 773.87
  Q 632.42 774.42 629.23 775.25
  Q 608.87 780.54 588.34 785.63
  C 585.70 786.29 582.25 787.55 581.90 790.64
  Q 579.29 813.37 587.63 832.65
  C 596.65 853.49 613.69 868.10 635.88 873.11
  Q 638.53 873.71 641.19 873.47
  A 0.98 0.98 0.0 0 0 642.06 872.67
  Q 642.63 869.57 642.60 866.26
  Z
  M 638.00 978.34
  C 640.54 958.55 642.18 939.43 642.52 919.89
  Q 642.56 917.60 640.25 916.82
  Q 637.95 916.04 635.69 915.66
  C 592.86 908.51 558.73 881.13 545.90 839.00
  C 544.32 833.81 542.80 828.05 542.03 822.76
  Q 540.77 814.08 540.09 804.04
  A 1.52 1.52 0.0 0 0 538.63 802.62
  C 537.62 802.58 536.19 802.66 535.24 803.01
  C 477.79 824.49 422.34 855.85 379.76 900.57
  Q 342.06 940.17 325.60 990.97
  Q 317.44 1016.15 316.05 1046.56
  Q 315.65 1055.15 316.66 1066.05
  Q 320.14 1103.61 335.08 1137.78
  C 336.00 1139.88 337.63 1142.55 339.86 1143.15
  C 345.19 1144.57 350.88 1144.93 356.44 1146.05
  Q 363.49 1147.46 371.32 1148.33
  C 375.98 1148.85 380.51 1150.16 385.21 1150.49
  C 393.29 1151.06 401.34 1152.25 409.48 1152.93
  Q 432.51 1154.88 465.48 1153.07
  Q 494.76 1151.47 520.58 1143.59
  C 557.06 1132.46 586.95 1110.18 606.85 1077.07
  Q 617.91 1058.67 625.06 1036.41
  Q 634.21 1007.90 638.00 978.34
  Z"
/>
<path fill="#e99d44" d="
  M 455.20 792.72
  Q 453.59 793.54 452.05 794.36
  C 404.32 819.75 361.44 852.87 328.51 894.95
  C 292.42 941.07 271.15 998.59 274.10 1057.73
  Q 274.73 1070.22 275.48 1084.44
  Q 275.55 1085.82 274.67 1084.75
  Q 269.74 1078.75 264.62 1072.31
  Q 243.10 1045.28 227.82 1016.00
  C 218.15 997.46 210.11 976.48 205.42 955.56
  Q 194.86 908.42 203.49 860.00
  C 211.56 814.72 234.69 775.74 271.94 747.90
  Q 288.31 735.67 309.36 725.63
  Q 346.81 707.77 389.37 709.03
  Q 405.65 709.51 418.45 711.75
  Q 441.23 715.74 465.92 720.34
  Q 496.75 726.08 528.41 729.29
  Q 538.43 730.30 548.57 730.66
  Q 589.22 732.09 622.39 731.74
  Q 624.98 731.71 627.35 731.88
  Q 630.09 732.07 627.41 732.68
  Q 615.67 735.31 602.96 738.66
  C 574.63 746.13 547.64 753.28 519.21 764.08
  Q 493.94 773.67 472.02 784.31
  Q 463.79 788.30 455.20 792.72
  Z"
/>
</svg>
